<svg version="1.1" 
  xmlns="http://www.w3.org/2000/svg" 
  viewBox="0 0 100 100">
	<path d="M55.1,40.1c0.9,4.4,3.3,8,7,10.9c3.7,2.9,8,4.3,12.8,4.3c1.6,0,3.3-0.2,5.1-0.6v30.8c0,0.7-0.2,1.3-0.7,1.7
  c-0.5,0.4-1.1,0.7-1.8,0.7h-5.1c-0.7,0-1.3-0.2-1.8-0.7c-0.5-0.4-0.7-1-0.7-1.7V64.1L49.6,78.5h5.1c1.4,0,2.6,0.5,3.6,1.4
  c1,0.9,1.5,2.1,1.5,3.4v2.4c0,0.7-0.2,1.3-0.7,1.7c-0.5,0.4-1.1,0.7-1.8,0.7H29.4c-2.7,0-5.1-0.9-7.1-2.8c-2-1.9-3-4.1-3-6.7V40.1
  c0-1.3-0.5-2.4-1.5-3.4c-1-0.9-2.2-1.4-3.6-1.4c-1.4,0-2.6-0.5-3.6-1.4c-1-0.9-1.5-2.1-1.5-3.4c0-1.3,0.5-2.4,1.5-3.4
  c1-0.9,2.2-1.4,3.6-1.4c4.2,0,7.8,1.4,10.8,4.2c2.9,2.8,4.4,6.2,4.4,10.2V53c2-2.9,4.3-5.3,7-7.3s5.4-3.3,8.1-4
  c2.7-0.7,4.8-1.1,6.2-1.3C52.2,40.2,53.6,40.1,55.1,40.1z M79.9,25.8l10.1-9.6v20.1c0,4-1.5,7.4-4.4,10.2c-3,2.8-6.5,4.2-10.8,4.2
  c-4.2,0-7.8-1.4-10.8-4.2c-3-2.8-4.4-6.2-4.4-10.2V16.2l10.1,9.6H79.9z M66.7,37.1c0.5,0.4,1.1,0.7,1.8,0.7c0.7,0,1.3-0.2,1.8-0.7
  c0.5-0.4,0.7-1,0.7-1.7c0-0.7-0.2-1.3-0.7-1.7S69.3,33,68.6,33c-0.7,0-1.3,0.2-1.8,0.7s-0.7,1-0.7,1.7C66,36.1,66.3,36.6,66.7,37.1
  z M79.4,37.1c0.5,0.4,1.1,0.7,1.8,0.7c0.7,0,1.3-0.2,1.8-0.7c0.5-0.4,0.7-1,0.7-1.7c0-0.7-0.2-1.3-0.7-1.7S81.9,33,81.2,33
  c-0.7,0-1.3,0.2-1.8,0.7c-0.5,0.4-0.7,1-0.7,1.7C78.7,36.1,78.9,36.6,79.4,37.1z"/>
</svg>
